<svg width="10" height="10" viewBox="0 0 10 10" fill="none" xmlns="http://www.w3.org/2000/svg">
<g clip-path="url(#clip0_33_419)">
<path d="M1.5625 7.1875H0.3125C0.22962 7.1875 0.150134 7.22042 0.0915291 7.27903C0.032924 7.33763 0 7.41712 0 7.5L0 8.75C0 8.83288 0.032924 8.91237 0.0915291 8.97097C0.150134 9.02958 0.22962 9.0625 0.3125 9.0625H1.5625C1.64538 9.0625 1.72487 9.02958 1.78347 8.97097C1.84208 8.91237 1.875 8.83288 1.875 8.75V7.5C1.875 7.41712 1.84208 7.33763 1.78347 7.27903C1.72487 7.22042 1.64538 7.1875 1.5625 7.1875ZM1.5625 0.9375H0.3125C0.22962 0.9375 0.150134 0.970424 0.0915291 1.02903C0.032924 1.08763 0 1.16712 0 1.25L0 2.5C0 2.58288 0.032924 2.66237 0.0915291 2.72097C0.150134 2.77958 0.22962 2.8125 0.3125 2.8125H1.5625C1.64538 2.8125 1.72487 2.77958 1.78347 2.72097C1.84208 2.66237 1.875 2.58288 1.875 2.5V1.25C1.875 1.16712 1.84208 1.08763 1.78347 1.02903C1.72487 0.970424 1.64538 0.9375 1.5625 0.9375ZM1.5625 4.0625H0.3125C0.22962 4.0625 0.150134 4.09542 0.0915291 4.15403C0.032924 4.21263 0 4.29212 0 4.375L0 5.625C0 5.70788 0.032924 5.78737 0.0915291 5.84597C0.150134 5.90458 0.22962 5.9375 0.3125 5.9375H1.5625C1.64538 5.9375 1.72487 5.90458 1.78347 5.84597C1.84208 5.78737 1.875 5.70788 1.875 5.625V4.375C1.875 4.29212 1.84208 4.21263 1.78347 4.15403C1.72487 4.09542 1.64538 4.0625 1.5625 4.0625ZM9.6875 7.5H3.4375C3.35462 7.5 3.27513 7.53292 3.21653 7.59153C3.15792 7.65013 3.125 7.72962 3.125 7.8125V8.4375C3.125 8.52038 3.15792 8.59987 3.21653 8.65847C3.27513 8.71708 3.35462 8.75 3.4375 8.75H9.6875C9.77038 8.75 9.84987 8.71708 9.90847 8.65847C9.96708 8.59987 10 8.52038 10 8.4375V7.8125C10 7.72962 9.96708 7.65013 9.90847 7.59153C9.84987 7.53292 9.77038 7.5 9.6875 7.5ZM9.6875 1.25H3.4375C3.35462 1.25 3.27513 1.28292 3.21653 1.34153C3.15792 1.40013 3.125 1.47962 3.125 1.5625V2.1875C3.125 2.27038 3.15792 2.34987 3.21653 2.40847C3.27513 2.46708 3.35462 2.5 3.4375 2.5H9.6875C9.77038 2.5 9.84987 2.46708 9.90847 2.40847C9.96708 2.34987 10 2.27038 10 2.1875V1.5625C10 1.47962 9.96708 1.40013 9.90847 1.34153C9.84987 1.28292 9.77038 1.25 9.6875 1.25ZM9.6875 4.375H3.4375C3.35462 4.375 3.27513 4.40792 3.21653 4.46653C3.15792 4.52513 3.125 4.60462 3.125 4.6875V5.3125C3.125 5.39538 3.15792 5.47487 3.21653 5.53347C3.27513 5.59208 3.35462 5.625 3.4375 5.625H9.6875C9.77038 5.625 9.84987 5.59208 9.90847 5.53347C9.96708 5.47487 10 5.39538 10 5.3125V4.6875C10 4.60462 9.96708 4.52513 9.90847 4.46653C9.84987 4.40792 9.77038 4.375 9.6875 4.375Z" fill="#1F1D36"/>
</g>
<defs>
<clipPath id="clip0_33_419">
<rect width="10" height="10" fill="white"/>
</clipPath>
</defs>
</svg>
